<svg id="Capa_1" data-name="Capa 1" xmlns="http://www.w3.org/2000/svg" viewBox="0 0 141.73 141.73"><defs><style>.cls-1{fill:#07074c;}.cls-2{fill:#2020a5;}.cls-3{fill:#11117c;}</style></defs><path class="cls-1" d="M77.52,137.69c18.69,0,34.15-6,45.3-16.41,13.56-12.65,4.3-35.45-14.25-35.45h0a21,21,0,0,0-15.27,6.8,22.11,22.11,0,0,1-3.75,3.17c-12.4,10.79-27.35,14.7-40.64,14.7-12.72,0-23.91-3.56-29.88-8l0,.45C29,124.28,49.45,137.69,77.52,137.69Z"/><path class="cls-2" d="M93.29,48.92h0a21,21,0,0,0,15.27,6.8c18.55,0,27.81-22.8,14.25-35.45C111.68,9.88,96.21,3.86,77.52,3.86,49.42,3.86,28.91,17.31,19,38.72c6-4.47,17.16-8,29.87-8C63.57,30.69,80.25,35.42,93.29,48.92Z"/><path class="cls-3" d="M21.37,99.35c4.46,3.35,14.35,7.26,27.54,7.26a60.39,60.39,0,0,0,28.47-7c-.21,0-.4,0-.61,0-13.94,0-22.49-11.34-22.49-28.81S62.83,42,76.77,42c.45,0,.88,0,1.32.06a60.13,60.13,0,0,0-29.18-7.44c-13.19,0-23.08,3.92-27.54,7.26l-5,3.78a79.58,79.58,0,0,0-3.87,25.16,80.31,80.31,0,0,0,3.7,24.67Z"/></svg>